# WaveFront *.obj file (generated by CINEMA 4D)

mtllib ./pin_sample_03.mtl

v 0.45247691869736 1.43869316577911 -0
v 0 0 0
v -0.31994950771332 1.43869316577911 0.31994950771332
v -0.45247691869736 1.43869316577911 0
v 0.31994950771332 1.43869316577911 -0.31994950771332
v -0.31994950771332 1.43869316577911 -0.31994950771332
v 0.31994950771332 1.43869316577911 0.31994950771332
v 0 1.43869316577911 0.45247691869736
v 0 1.43869316577911 -0.45247691869736
v 0 2.66177845001221 0.85065078735352
v 0 1.61031627655029 0.85065078735352
v 0.85065078735352 2.13604736328125 0.52573108673096
v 0.85065078735352 2.13604736328125 -0.52573108673096
v 0 2.66177845001221 -0.85065078735352
v 0 1.61031627655029 -0.85065078735352
v -0.85065078735352 2.13604736328125 -0.52573108673096
v -0.85065078735352 2.13604736328125 0.52573108673096
v 0.52573108673096 2.98669815063477 0
v -0.52573108673096 2.98669815063477 0
v -0.52573108673096 1.28539657592773 0
v 0.52573108673096 1.28539657592773 0
v 0 3.13604736328125 0
v 0.30901700258255 2.94506430625916 0.5
v -0.30901700258255 2.94506430625916 0.5
v 0.80901700258255 2.63604736328125 0.30901700258255
v 0.5 2.44506430625916 0.80901700258255
v 0.80901700258255 2.63604736328125 -0.30901700258255
v 1 2.13604736328125 0
v 0.30901700258255 2.94506430625916 -0.5
v 0.5 2.44506430625916 -0.80901700258255
v -0.30901700258255 2.94506430625916 -0.5
v -0.80901700258255 2.63604736328125 -0.30901700258255
v -0.5 2.44506430625916 -0.80901700258255
v -0.80901700258255 2.63604736328125 0.30901700258255
v -1 2.13604736328125 0
v -0.5 2.44506430625916 0.80901700258255
v 0 1.13604736328125 0
v -0.30901700258255 1.32703042030334 0.5
v 0.30901700258255 1.32703042030334 0.5
v 0.80901700258255 1.63604736328125 0.30901700258255
v 0.5 1.82703042030334 0.80901700258255
v 0.80901700258255 1.63604736328125 -0.30901700258255
v 0.5 1.82703042030334 -0.80901700258255
v 0.30901700258255 1.32703042030334 -0.5
v -0.30901700258255 1.32703042030334 -0.5
v -0.5 1.82703042030334 -0.80901700258255
v -0.80901700258255 1.63604736328125 -0.30901700258255
v -0.80901700258255 1.63604736328125 0.30901700258255
v -0.5 1.82703042030334 0.80901700258255
v 0 2.13604736328125 1
v 0 2.13604736328125 -1
# 51 vertices

vn 0.88718658685684 -0.2790250480175 -0.36748465895653
vn 0 0 0
vn -0.88718658685684 -0.2790250480175 0.36748465895653
vn 0.36748465895653 -0.2790250480175 0.88718658685684
vn -0.88718658685684 -0.27902507781982 -0.36748465895653
vn -0.36748465895653 -0.27902507781982 0.88718658685684
vn 0.36748465895653 -0.27902507781982 -0.88718658685684
vn 0.88718658685684 -0.27902507781982 0.36748465895653
vn -0.36748465895653 -0.2790250480175 -0.88718658685684
vn -0.52573108673096 0.85065084695816 0.00000000631725
vn 0 1 0.00000000528182
vn -0.30901697278023 0.80901700258255 0.5
vn 0.52573108673096 0.85065084695816 0.00000000315862
vn 0.30901694297791 0.80901700258255 0.5
vn 0 0.52573108673096 0.85065084695816
vn 0.80901700258255 0.49999997019768 0.30901700258255
vn 0.85065078735352 -0.00000000631725 0.5257311463356
vn 0.49999997019768 0.30901697278023 0.80901700258255
vn 0.80901700258255 0.49999997019768 -0.30901703238487
vn 0.85065078735352 -0.00000000631725 -0.5257311463356
vn 1 -0.00000000264091 0
vn 0.30901694297791 0.80901694297791 -0.50000011920929
vn 0 0.52573108673096 -0.85065084695816
vn 0.49999994039536 0.30901700258255 -0.80901700258255
vn -0.30901697278023 0.80901700258255 -0.50000005960464
vn -0.49999997019768 0.30901697278023 -0.80901700258255
vn -0.80901700258255 0.49999997019768 -0.30901700258255
vn -0.85065078735352 -0.00000000631725 -0.5257311463356
vn -1 0 0
vn -0.80901700258255 0.49999997019768 0.30901703238487
vn -0.85065078735352 -0.00000000631725 0.5257311463356
vn -0.49999997019768 0.30901697278023 0.80901700258255
vn 0.52573108673096 -0.85065084695816 0
vn 0 -1 0.00000000264091
vn 0.30901697278023 -0.80901700258255 0.5
vn -0.52573108673096 -0.85065084695816 0.00000000631725
vn -0.30901697278023 -0.80901700258255 0.5
vn 0 -0.52573108673096 0.85065084695816
vn 0.80901700258255 -0.49999994039536 0.30901703238487
vn 0.49999997019768 -0.30901697278023 0.80901700258255
vn 0.80901700258255 -0.49999997019768 -0.30901703238487
vn 0.49999997019768 -0.30901697278023 -0.80901700258255
vn 0.00000000315862 -0.52573108673096 -0.85065084695816
vn 0.30901697278023 -0.80901700258255 -0.50000005960464
vn -0.30901697278023 -0.80901700258255 -0.5
vn -0.49999997019768 -0.30901697278023 -0.80901700258255
vn -0.80901700258255 -0.49999994039536 -0.30901703238487
vn -0.80901700258255 -0.49999997019768 0.30901703238487
vn -0.49999997019768 -0.30901697278023 0.80901700258255
vn 0.00000001320455 0 1
vn -0.00000000528182 0 -1
# 51 normals

vt 0.375 0 0
vt 0.5 1 0
vt 0.5 0 0
vt 0.875 0 0
vt 1 1 0
vt 1 0 0
vt 0.625 0 0
vt 0.75 1 0
vt 0.75 0 0
vt 0 0 0
vt 0.125 1 0
vt 0.125 0 0
vt 0.875 1 0
vt 0.25 0 0
vt 0.375 1 0
vt 0.625 1 0
vt 0.25 1 0
vt 0.69999998807907 0.307000041008 0
vt 0.64999997615814 0.22049999237061 0
vt 0.60000002384186 0.307000041008 0
vt 0 1 0
vt 0.60000002384186 0.1340000629425 0
vt 0.55000001192093 0.22049999237061 0
vt 0.5 0.307000041008 0
vt 0.5 0.1340000629425 0
vt 0.40000000596046 0.1340000629425 0
vt 0.44999998807907 0.22049999237061 0
vt 0.10000000149012 1 0
vt 0.1499999910593 0.91350001096725 0
vt 0.05000000074506 0.91350001096725 0
vt 0.19999998807907 0.82700002193451 0
vt 0.09999999403954 0.82700002193451 0
vt 0 0.82700002193451 0
vt 0.20000000298023 1 0
vt 0.30000001192093 1 0
vt 0.25 0.91350001096725 0
vt 1 0.48000001907349 0
vt 0.89999997615814 0.48000001907349 0
vt 0.94999998807907 0.56650000810623 0
vt 0.80000001192093 0.48000001907349 0
vt 0.85000002384186 0.56650000810623 0
vt 0.89999997615814 0.65299999713898 0
vt 0.79999995231628 0.65299999713898 0
vt 0.75 0.56650000810623 0
vt 0.69999998807907 0.65299999713898 0
vt 0.64999997615814 0.56650000810623 0
vt 0.70000004768372 0.48000001907349 0
vt 0.60000002384186 0.48000001907349 0
vt 0.64999997615814 0.3934999704361 0
vt 0.54999995231628 0.3934999704361 0
vt 0.30000001192093 0.65299999713898 0
vt 0.40000000596046 0.65299999713898 0
vt 0.34999999403954 0.56650000810623 0
vt 0.5 0.65299999713898 0
vt 0.44999998807907 0.56650000810623 0
vt 0.39999997615814 0.48000001907349 0
vt 0.30000001192093 0.307000041008 0
vt 0.25 0.3934999704361 0
vt 0.34999999403954 0.3934999704361 0
vt 0.20000000298023 0.48000001907349 0
vt 0.29999998211861 0.48000001907349 0
vt 0.10000000149012 0.65400004386902 0
vt 0.1499999910593 0.74050003290176 0
vt 0.20000000298023 0.653500020504 0
vt 0.25 0.74000000953674 0
vt 0.29999995231628 0.82700002193451 0
vt 0.39999997615814 0.82700002193451 0
vt 0.34999999403954 0.74000000953674 0
vt 0.44999998807907 0.74000000953674 0
vt 0.44999998807907 0.91350001096725 0
vt 0.5 0.82700002193451 0
vt 0.55000001192093 0.91350001096725 0
vt 0.60000002384186 0.82700002193451 0
vt 0.60000002384186 0.65299999713898 0
vt 0.55000001192093 0.56650000810623 0
vt 0.5 0.48000001907349 0
vt 0.44999998807907 0.3934999704361 0
vt 0.40000000596046 0.307000041008 0
vt 0.34999999403954 0.91350001096725 0
vt 0.40000000596046 1 0
# 80 texture coordinates

o Cone.1
usemtl default
f 1/3/1 2/2/1 5/1/1
f 4/6/3 2/5/3 3/4/3
f 8/9/4 2/8/4 7/7/4
f 6/12/5 2/11/5 4/10/5
f 3/4/6 2/13/6 8/9/6
f 5/1/7 2/15/7 9/14/7
f 7/7/8 2/16/8 1/3/8
f 9/14/9 2/17/9 6/12/9
f 24/20/12 22/19/11 19/18/10
f 23/23/14 18/22/13 22/19/11
f 22/19/11 24/20/12 23/23/14
f 10/24/15 23/23/14 24/20/12
f 23/23/14 25/25/16 18/22/13
f 26/27/18 12/26/17 25/25/16
f 25/25/16 23/23/14 26/27/18
f 10/24/15 26/27/18 23/23/14
f 25/30/16 27/29/19 18/28/13
f 28/32/21 13/31/20 27/29/19
f 27/29/19 25/30/16 28/32/21
f 12/33/17 28/32/21 25/30/16
f 27/29/19 29/34/22 18/28/13
f 30/36/24 14/35/23 29/34/22
f 29/34/22 27/29/19 30/36/24
f 13/31/20 30/36/24 27/29/19
f 29/39/22 22/38/11 18/37/13
f 31/41/25 19/40/10 22/38/11
f 22/38/11 29/39/22 31/41/25
f 14/42/23 31/41/25 29/39/22
f 33/43/26 31/41/25 14/42/23
f 32/44/27 19/40/10 31/41/25
f 31/41/25 33/43/26 32/44/27
f 16/45/28 32/44/27 33/43/26
f 35/46/29 32/44/27 16/45/28
f 34/47/30 19/40/10 32/44/27
f 32/44/27 35/46/29 34/47/30
f 17/48/31 34/47/30 35/46/29
f 34/49/30 24/20/12 19/18/10
f 36/50/32 10/24/15 24/20/12
f 24/20/12 34/49/30 36/50/32
f 17/48/31 36/50/32 34/49/30
f 39/53/35 37/52/34 21/51/33
f 38/55/37 20/54/36 37/52/34
f 37/52/34 39/53/35 38/55/37
f 11/56/38 38/55/37 39/53/35
f 41/59/40 40/58/39 12/57/17
f 39/61/35 21/60/33 40/58/39
f 40/58/39 41/59/40 39/61/35
f 11/56/38 39/61/35 41/59/40
f 40/64/39 28/63/21 12/62/17
f 42/65/41 13/31/20 28/63/21
f 28/63/21 40/64/39 42/65/41
f 21/51/33 42/65/41 40/64/39
f 42/65/41 43/66/42 13/31/20
f 44/68/44 15/67/43 43/66/42
f 43/66/42 42/65/41 44/68/44
f 21/51/33 44/68/44 42/65/41
f 44/68/44 45/69/45 15/67/43
f 37/52/34 20/54/36 45/69/45
f 45/69/45 44/68/44 37/52/34
f 21/51/33 37/52/34 44/68/44
f 45/71/45 46/70/46 15/67/43
f 47/72/47 16/2/28 46/70/46
f 46/70/46 45/71/45 47/72/47
f 20/73/36 47/72/47 45/71/45
f 47/74/47 35/46/29 16/45/28
f 48/75/48 17/48/31 35/46/29
f 35/46/29 47/74/47 48/75/48
f 20/54/36 48/75/48 47/74/47
f 48/75/48 49/76/49 17/48/31
f 38/55/37 11/56/38 49/76/49
f 49/76/49 48/75/48 38/55/37
f 20/54/36 38/55/37 48/75/48
f 50/77/50 49/76/49 11/56/38
f 36/50/32 17/48/31 49/76/49
f 49/76/49 50/77/50 36/50/32
f 10/24/15 36/50/32 50/77/50
f 26/78/18 41/59/40 12/57/17
f 50/77/50 11/56/38 41/59/40
f 41/59/40 26/78/18 50/77/50
f 10/24/15 50/77/50 26/78/18
f 30/36/24 51/79/51 14/35/23
f 43/66/42 15/67/43 51/79/51
f 51/79/51 30/36/24 43/66/42
f 13/31/20 43/66/42 30/36/24
f 51/79/51 33/80/26 14/35/23
f 46/70/46 16/2/28 33/80/26
f 33/80/26 51/79/51 46/70/46
f 15/67/43 46/70/46 51/79/51

